REM DIRINDEX 1\2,1\3
REM DIRNAME folder01,folder02,folder03
TITLE ""
FILE "ScrambleS_3Part1_Theme123.mp3" MP3
  TRACK 01 AUDIO
    TITLE "3:cjc080_0634"
    INDEX 01 00:00:00
  TRACK 02 AUDIO
    TITLE "0:"
    INDEX 01 00:02:22
  TRACK 03 AUDIO
    TITLE "2:cjc080_0635"
    INDEX 01 00:03:31
  TRACK 04 AUDIO
    TITLE "0:"
    INDEX 01 00:06:59
  TRACK 05 AUDIO
    TITLE "2:cjc080_0636"
    INDEX 01 00:07:74
  TRACK 06 AUDIO
    TITLE "0:"
    INDEX 01 00:12:38
